<svg width="224" height="21" fill="none" xmlns="http://www.w3.org/2000/svg"><path d="M.84 15.544l.096-.432L8.712.424h3.48l7.704 14.448c.064.112.104.2.12.264a.892.892 0 0 1 .024.216v.336c0 .08-.016.152-.048.216-.016.064-.072.096-.168.096h-3.816L10.536 5.176l-.12-.024-3.672 6.984v.288c0 .128.048.192.144.192h6.024l.24.312v2.832l-.24.24H1.056c-.064 0-.12-.056-.168-.168a1.076 1.076 0 0 1-.048-.288zM36.027.76v3.048l-.336.24-8.184 8.232.216.336h8.064l.24.336v2.712l-.216.336h-13.44l-.312-.36v-3.024l.312-.216 8.256-8.256-.216-.36h-8.136l-.216-.336V.736l.192-.312h13.44l.336.336zm2.368-.12l.312-.216h14.664l.216.312v2.712l-.24.336H42.475l-.216.36v8.136l.216.336h10.872l.24.336v2.712l-.216.336H38.707l-.312-.36v-15zM52.1 6.784V9.64l-.24.264h-8.376l-.24-.264V6.784l.24-.264h8.376l.24.264zm3.898.888V2.656c0-.208.048-.44.144-.696.112-.272.248-.52.408-.744A2.26 2.26 0 0 1 57.1.664c.208-.16.424-.24.648-.24H71.02l.216.312v2.712l-.24.336H59.86V6.52h9.624c.208 0 .416.08.624.24.208.144.392.328.552.552.176.224.312.472.408.744.112.256.168.488.168.696v5.016c0 .224-.056.464-.168.72a2.69 2.69 0 0 1-.408.72c-.16.224-.344.416-.552.576a1.09 1.09 0 0 1-.624.216H56.189l-.192-.336v-2.712l.216-.336h11.16V9.904h-9.624c-.224 0-.44-.072-.648-.216a2.702 2.702 0 0 1-.552-.576 4.83 4.83 0 0 1-.408-.744 2.004 2.004 0 0 1-.144-.696zm17.648 0V2.656c0-.208.048-.44.144-.696.112-.272.248-.52.408-.744a2.26 2.26 0 0 1 .552-.552c.208-.16.424-.24.648-.24H88.67l.216.312v2.712l-.24.336H77.51V6.52h9.624c.208 0 .416.08.624.24.208.144.392.328.552.552.176.224.312.472.408.744.112.256.168.488.168.696v5.016c0 .224-.056.464-.168.72a2.69 2.69 0 0 1-.408.72c-.16.224-.344.416-.552.576a1.09 1.09 0 0 1-.624.216H73.837l-.192-.336v-2.712l.216-.336h11.16V9.904h-9.624c-.224 0-.44-.072-.648-.216a2.702 2.702 0 0 1-.552-.576 4.83 4.83 0 0 1-.408-.744 2.004 2.004 0 0 1-.144-.696zM96.36 16V7.594h-1.296v-.972h1.296V6.37c0-1.152.246-2.052.738-2.7.492-.66 1.164-.99 2.016-.99.372 0 .732.054 1.08.162.348.108.648.252.9.432l-.378.882a1.815 1.815 0 0 0-.63-.306 2.56 2.56 0 0 0-.738-.108c-.576 0-1.014.222-1.314.666-.3.444-.45 1.086-.45 1.926v.288h2.592v.972h-2.592V16h-1.224zm9.012.18a4.538 4.538 0 0 1-1.872-.378 4.83 4.83 0 0 1-1.476-1.062 4.86 4.86 0 0 1-.954-1.548 5.083 5.083 0 0 1-.342-1.854c0-.66.114-1.284.342-1.872.24-.588.564-1.104.972-1.548a4.83 4.83 0 0 1 1.476-1.062 4.318 4.318 0 0 1 1.854-.396c.672 0 1.29.132 1.854.396a4.558 4.558 0 0 1 1.476 1.062c.42.444.744.96.972 1.548.24.588.36 1.212.36 1.872 0 .648-.114 1.266-.342 1.854a4.7 4.7 0 0 1-.972 1.548c-.408.444-.9.798-1.476 1.062a4.538 4.538 0 0 1-1.872.378zm-3.402-4.824c0 .528.09 1.02.27 1.476.18.444.42.84.72 1.188.312.336.672.6 1.08.792.42.192.864.288 1.332.288.468 0 .906-.096 1.314-.288.42-.204.786-.474 1.098-.81a3.975 3.975 0 0 0 1.008-2.682c0-.516-.09-1.002-.27-1.458a3.704 3.704 0 0 0-.738-1.206 3.308 3.308 0 0 0-1.098-.81 2.898 2.898 0 0 0-1.314-.306c-.468 0-.906.102-1.314.306a3.365 3.365 0 0 0-1.08.81 3.923 3.923 0 0 0-.738 1.224c-.18.456-.27.948-.27 1.476zm14.107 4.824a4.538 4.538 0 0 1-1.872-.378 4.83 4.83 0 0 1-1.476-1.062 4.86 4.86 0 0 1-.954-1.548 5.083 5.083 0 0 1-.342-1.854c0-.66.114-1.284.342-1.872.24-.588.564-1.104.972-1.548a4.83 4.83 0 0 1 1.476-1.062 4.318 4.318 0 0 1 1.854-.396c.672 0 1.29.132 1.854.396a4.558 4.558 0 0 1 1.476 1.062c.42.444.744.96.972 1.548.24.588.36 1.212.36 1.872 0 .648-.114 1.266-.342 1.854a4.7 4.7 0 0 1-.972 1.548c-.408.444-.9.798-1.476 1.062a4.538 4.538 0 0 1-1.872.378zm-3.402-4.824c0 .528.09 1.02.27 1.476.18.444.42.84.72 1.188.312.336.672.6 1.08.792.42.192.864.288 1.332.288.468 0 .906-.096 1.314-.288.42-.204.786-.474 1.098-.81a3.975 3.975 0 0 0 1.008-2.682c0-.516-.09-1.002-.27-1.458a3.704 3.704 0 0 0-.738-1.206 3.308 3.308 0 0 0-1.098-.81 2.898 2.898 0 0 0-1.314-.306c-.468 0-.906.102-1.314.306a3.365 3.365 0 0 0-1.08.81 3.923 3.923 0 0 0-.738 1.224c-.18.456-.27.948-.27 1.476zm14.489 4.194c-.072.036-.18.084-.324.144-.132.06-.288.12-.468.18-.18.06-.384.114-.612.162a3.488 3.488 0 0 1-.72.072c-.264 0-.516-.036-.756-.108-.24-.072-.45-.18-.63-.324a1.733 1.733 0 0 1-.594-1.368V7.594h-1.296v-.972h1.296V3.454h1.224v3.168h2.16v.972h-2.16v6.372c.024.348.144.606.36.774.228.156.486.234.774.234.348 0 .654-.054.918-.162.264-.12.432-.204.504-.252l.324.99zm6.119.63a3.934 3.934 0 0 1-2.052-.558 4.136 4.136 0 0 1-1.44-1.44V16h-1.098V2.86h1.224v5.724a5.253 5.253 0 0 1 1.512-1.53c.588-.396 1.272-.594 2.052-.594.66 0 1.248.138 1.764.414.528.276.972.648 1.332 1.116.372.456.654.978.846 1.566a5.3 5.3 0 0 1 .306 1.782c0 .66-.114 1.284-.342 1.872a5.037 5.037 0 0 1-.936 1.548c-.396.432-.87.78-1.422 1.044a4.077 4.077 0 0 1-1.746.378zm-.288-1.08c.516 0 .984-.102 1.404-.306a3.494 3.494 0 0 0 1.098-.846c.312-.36.552-.762.72-1.206.18-.456.27-.924.27-1.404 0-.492-.084-.966-.252-1.422a3.622 3.622 0 0 0-.684-1.206 3.047 3.047 0 0 0-1.062-.846 2.84 2.84 0 0 0-1.35-.324c-.372 0-.72.066-1.044.198-.324.12-.624.288-.9.504a4.008 4.008 0 0 0-.738.756 4.46 4.46 0 0 0-.54.882v2.916c.048.324.174.63.378.918.216.276.468.516.756.72.3.204.618.366.954.486.348.12.678.18.99.18zm9.165 1.08c-.444 0-.858-.072-1.242-.216a3.395 3.395 0 0 1-.99-.63 2.9 2.9 0 0 1-.648-.918 2.866 2.866 0 0 1-.234-1.152c0-.408.096-.786.288-1.134.192-.348.462-.648.81-.9a3.826 3.826 0 0 1 1.242-.576 5.496 5.496 0 0 1 1.584-.216c.48 0 .966.042 1.458.126.492.084.93.204 1.314.36v-.846c0-.828-.234-1.482-.702-1.962-.468-.492-1.116-.738-1.944-.738-.48 0-.972.096-1.476.288a7.118 7.118 0 0 0-1.53.828l-.432-.81c1.212-.816 2.388-1.224 3.528-1.224 1.176 0 2.1.33 2.772.99.672.66 1.008 1.572 1.008 2.736v4.23c0 .336.15.504.45.504V16c-.204.036-.36.054-.468.054-.312 0-.558-.078-.738-.234-.168-.156-.258-.372-.27-.648l-.036-.738a4.238 4.238 0 0 1-1.638 1.296c-.648.3-1.35.45-2.106.45zm.288-.936a4.17 4.17 0 0 0 1.746-.36c.54-.24.948-.558 1.224-.954.108-.108.186-.222.234-.342a.881.881 0 0 0 .09-.36v-1.53a7.447 7.447 0 0 0-2.61-.486c-.864 0-1.566.18-2.106.54-.54.36-.81.834-.81 1.422 0 .288.054.558.162.81.12.252.276.474.468.666.204.18.444.324.72.432.276.108.57.162.882.162zm7.217-12.384h1.224v11.016c0 .348.096.624.288.828.192.192.462.288.81.288a3.09 3.09 0 0 0 .972-.198l.216.99a4.03 4.03 0 0 1-.846.234c-.324.06-.606.09-.846.09-.564 0-1.008-.156-1.332-.468-.324-.324-.486-.774-.486-1.35V2.86zm4.904 0h1.224v11.016c0 .348.096.624.288.828.192.192.462.288.81.288a3.09 3.09 0 0 0 .972-.198l.216.99a4.03 4.03 0 0 1-.846.234c-.324.06-.606.09-.846.09-.564 0-1.008-.156-1.332-.468-.324-.324-.486-.774-.486-1.35V2.86zm11.234 13.32c-.444 0-.858-.072-1.242-.216a3.395 3.395 0 0 1-.99-.63 2.9 2.9 0 0 1-.648-.918 2.866 2.866 0 0 1-.234-1.152c0-.408.096-.786.288-1.134.192-.348.462-.648.81-.9a3.826 3.826 0 0 1 1.242-.576 5.496 5.496 0 0 1 1.584-.216c.48 0 .966.042 1.458.126.492.084.93.204 1.314.36v-.846c0-.828-.234-1.482-.702-1.962-.468-.492-1.116-.738-1.944-.738-.48 0-.972.096-1.476.288a7.118 7.118 0 0 0-1.53.828l-.432-.81c1.212-.816 2.388-1.224 3.528-1.224 1.176 0 2.1.33 2.772.99.672.66 1.008 1.572 1.008 2.736v4.23c0 .336.15.504.45.504V16c-.204.036-.36.054-.468.054-.312 0-.558-.078-.738-.234-.168-.156-.258-.372-.27-.648l-.036-.738a4.238 4.238 0 0 1-1.638 1.296c-.648.3-1.35.45-2.106.45zm.288-.936a4.17 4.17 0 0 0 1.746-.36c.54-.24.948-.558 1.224-.954.108-.108.186-.222.234-.342a.881.881 0 0 0 .09-.36v-1.53a7.447 7.447 0 0 0-2.61-.486c-.864 0-1.566.18-2.106.54-.54.36-.81.834-.81 1.422 0 .288.054.558.162.81.12.252.276.474.468.666.204.18.444.324.72.432.276.108.57.162.882.162zm10.924.882a4.002 4.002 0 0 1-1.782-.396 4.857 4.857 0 0 1-1.386-1.08 5 5 0 0 1-.9-1.53 5.035 5.035 0 0 1-.324-1.782c0-.648.102-1.266.306-1.854.216-.6.516-1.122.9-1.566a4.38 4.38 0 0 1 1.368-1.062 4.002 4.002 0 0 1 1.782-.396c.804 0 1.5.204 2.088.612.588.396 1.092.9 1.512 1.512V6.622h1.098v9.414c0 .648-.126 1.218-.378 1.71-.24.504-.57.924-.99 1.26a4.108 4.108 0 0 1-1.458.756 6.028 6.028 0 0 1-1.764.252c-1.08 0-1.95-.192-2.61-.576a4.601 4.601 0 0 1-1.602-1.548l.756-.594c.372.6.864 1.038 1.476 1.314a4.591 4.591 0 0 0 1.98.432c.456 0 .888-.066 1.296-.198.408-.12.762-.306 1.062-.558.312-.24.558-.552.738-.936.18-.372.27-.81.27-1.314v-1.854c-.36.6-.852 1.074-1.476 1.422a3.972 3.972 0 0 1-1.962.522zm.342-1.026c.36 0 .714-.066 1.062-.198a3.55 3.55 0 0 0 1.656-1.278c.192-.276.318-.558.378-.846V9.88a3.75 3.75 0 0 0-2.25-2.16 2.83 2.83 0 0 0-.99-.18c-.528 0-1.002.114-1.422.342a3.3 3.3 0 0 0-1.044.864 4.03 4.03 0 0 0-.666 1.224 4.578 4.578 0 0 0-.216 1.386 3.975 3.975 0 0 0 1.008 2.646c.324.336.696.606 1.116.81.42.192.876.288 1.368.288zm11.073 1.08a4.664 4.664 0 0 1-1.89-.378 4.83 4.83 0 0 1-1.476-1.062 5.18 5.18 0 0 1-.99-1.566 5.182 5.182 0 0 1-.342-1.89c0-.66.114-1.278.342-1.854.24-.588.564-1.098.972-1.53.42-.444.918-.792 1.494-1.044a4.439 4.439 0 0 1 1.872-.396c.684 0 1.308.132 1.872.396a4.34 4.34 0 0 1 1.476 1.044 4.943 4.943 0 0 1 1.296 3.366v.288a.724.724 0 0 1-.018.198h-8.028c.036.504.15.972.342 1.404.204.42.462.786.774 1.098.312.312.666.558 1.062.738a3.37 3.37 0 0 0 2.196.126c.3-.084.576-.198.828-.342.252-.144.48-.318.684-.522.204-.216.36-.45.468-.702l1.062.288a3.235 3.235 0 0 1-.612.954 4.67 4.67 0 0 1-.918.738c-.348.204-.732.36-1.152.468-.42.12-.858.18-1.314.18zm3.456-5.364a3.601 3.601 0 0 0-.36-1.368 3.497 3.497 0 0 0-.756-1.08c-.3-.3-.654-.534-1.062-.702a3.238 3.238 0 0 0-1.278-.252 3.424 3.424 0 0 0-2.376.954c-.3.3-.546.66-.738 1.08-.18.42-.288.876-.324 1.368h6.894zM202.828 16h-1.224v-5.238c0-1.116-.168-1.926-.504-2.43-.324-.504-.828-.756-1.512-.756-.36 0-.72.066-1.08.198a3.78 3.78 0 0 0-1.008.558c-.3.24-.57.528-.81.864-.24.324-.414.678-.522 1.062V16h-1.224V6.622h1.116v2.124a4.425 4.425 0 0 1 1.638-1.656c.72-.42 1.5-.63 2.34-.63.516 0 .954.096 1.314.288.36.192.648.462.864.81.216.348.372.774.468 1.278.096.504.144 1.062.144 1.674V16zm1.962-4.716c0-.66.114-1.284.342-1.872a4.649 4.649 0 0 1 .954-1.53c.42-.444.918-.792 1.494-1.044a4.71 4.71 0 0 1 1.908-.378c.888 0 1.662.204 2.322.612.66.396 1.158.936 1.494 1.62l-1.188.378A2.775 2.775 0 0 0 211 7.954a3.025 3.025 0 0 0-1.566-.414c-.48 0-.93.096-1.35.288a3.49 3.49 0 0 0-1.08.792 3.7 3.7 0 0 0-.72 1.17 4.29 4.29 0 0 0-.252 1.494c0 .528.09 1.026.27 1.494.18.468.426.876.738 1.224.312.336.672.606 1.08.81.42.192.864.288 1.332.288.3 0 .594-.042.882-.126.3-.084.576-.198.828-.342.252-.156.468-.33.648-.522s.306-.396.378-.612l1.206.36a3.185 3.185 0 0 1-.576.936 4.227 4.227 0 0 1-.9.738c-.336.204-.714.36-1.134.468-.408.12-.834.18-1.278.18a4.664 4.664 0 0 1-1.89-.378 4.768 4.768 0 0 1-1.494-1.062 5.18 5.18 0 0 1-.99-1.566 5.182 5.182 0 0 1-.342-1.89zm10.944 7.596c.096.012.186.018.27.018.096.012.186.018.27.018.216 0 .384-.03.504-.09.132-.06.258-.192.378-.396.12-.204.252-.498.396-.882.156-.384.372-.9.648-1.548l-4.086-9.378h1.26l3.474 8.244 3.222-8.244h1.17l-4.86 12.096a2.108 2.108 0 0 1-.666.9c-.3.264-.714.396-1.242.396a3.1 3.1 0 0 1-.342-.018c-.108 0-.24-.012-.396-.036v-1.08z" fill="#fff"/></svg>