<svg width="513" height="165" fill="none" xmlns="http://www.w3.org/2000/svg"><path d="M1.36 61.176l.384-1.728L32.848.696h13.92l30.816 57.792c.256.448.416.8.48 1.056s.096.544.096.864v1.344c0 .32-.064.608-.192.864-.064.256-.288.384-.672.384H62.032L40.144 19.704l-.48-.096-14.688 27.936v1.152c0 .512.192.768.576.768h24.096l.96 1.248V62.04l-.96.96H2.224c-.256 0-.48-.224-.672-.672-.128-.448-.192-.832-.192-1.152zM142.11 2.04v12.192l-1.344.96L108.03 48.12l.864 1.344h32.256l.96 1.344v10.848L141.246 63h-53.76l-1.249-1.44V49.464l1.249-.864 33.024-33.024-.864-1.44H87.102l-.865-1.344V1.944l.769-1.248h53.76l1.344 1.344zm9.471-.48l1.248-.864h58.656l.864 1.248v10.848l-.96 1.344h-43.488l-.864 1.44V48.12l.864 1.344h43.488l.96 1.344v10.848L211.485 63h-58.656l-1.248-1.44v-60zm54.816 24.576V37.56l-.96 1.056h-33.504l-.96-1.056V26.136l.96-1.056h33.504l.96 1.056zm15.591 3.552V9.624c0-.832.192-1.76.576-2.784.448-1.088.992-2.08 1.632-2.976a9.041 9.041 0 0 1 2.208-2.208c.832-.64 1.696-.96 2.592-.96h53.088l.864 1.248v10.848l-.96 1.344h-44.544V25.08h38.496c.832 0 1.664.32 2.496.96a9.041 9.041 0 0 1 2.208 2.208 10.367 10.367 0 0 1 1.632 2.976c.448 1.024.672 1.952.672 2.784v20.064c0 .896-.224 1.856-.672 2.88a10.758 10.758 0 0 1-1.632 2.88 10.808 10.808 0 0 1-2.208 2.304c-.832.576-1.664.864-2.496.864h-53.184l-.768-1.344V50.808l.864-1.344h44.64V38.616h-38.496c-.896 0-1.76-.288-2.592-.864a10.808 10.808 0 0 1-2.208-2.304 19.32 19.32 0 0 1-1.632-2.976c-.384-1.024-.576-1.952-.576-2.784zm70.593 0V9.624c0-.832.192-1.76.576-2.784.448-1.088.992-2.08 1.632-2.976a9.041 9.041 0 0 1 2.208-2.208c.832-.64 1.696-.96 2.592-.96h53.088l.864 1.248v10.848l-.96 1.344h-44.544V25.08h38.496c.832 0 1.664.32 2.496.96a9.041 9.041 0 0 1 2.208 2.208 10.367 10.367 0 0 1 1.632 2.976c.448 1.024.672 1.952.672 2.784v20.064c0 .896-.224 1.856-.672 2.88a10.758 10.758 0 0 1-1.632 2.88 10.808 10.808 0 0 1-2.208 2.304c-.832.576-1.664.864-2.496.864h-53.184l-.768-1.344V50.808l.864-1.344h44.64V38.616h-38.496c-.896 0-1.76-.288-2.592-.864a10.808 10.808 0 0 1-2.208-2.304 19.32 19.32 0 0 1-1.632-2.976c-.384-1.024-.576-1.952-.576-2.784zM5.2 148v-33.624H.016v-3.888H5.2v-1.008c0-4.608.984-8.208 2.952-10.8 1.968-2.64 4.656-3.96 8.064-3.96 1.488 0 2.928.216 4.32.648 1.392.432 2.592 1.008 3.6 1.728l-1.512 3.528c-.672-.528-1.512-.936-2.52-1.224a10.219 10.219 0 0 0-2.952-.432c-2.304 0-4.056.888-5.256 2.664-1.2 1.776-1.8 4.344-1.8 7.704v1.152h10.368v3.888H10.096V148H5.2zm36.051.72c-2.736 0-5.232-.504-7.488-1.512a19.322 19.322 0 0 1-5.904-4.248c-1.632-1.776-2.904-3.84-3.816-6.192a20.333 20.333 0 0 1-1.368-7.416c0-2.64.456-5.136 1.368-7.488.96-2.352 2.256-4.416 3.888-6.192a19.322 19.322 0 0 1 5.904-4.248c2.256-1.056 4.728-1.584 7.416-1.584 2.688 0 5.16.528 7.416 1.584 2.304 1.056 4.272 2.472 5.904 4.248 1.68 1.776 2.976 3.84 3.888 6.192.96 2.352 1.44 4.848 1.44 7.488 0 2.592-.456 5.064-1.368 7.416-.912 2.352-2.208 4.416-3.888 6.192-1.632 1.776-3.6 3.192-5.904 4.248-2.256 1.008-4.752 1.512-7.488 1.512zm-13.608-19.296c0 2.112.36 4.08 1.08 5.904.72 1.776 1.68 3.36 2.88 4.752a13.962 13.962 0 0 0 4.32 3.168 12.667 12.667 0 0 0 5.328 1.152c1.872 0 3.624-.384 5.256-1.152a14.7 14.7 0 0 0 4.392-3.24c1.248-1.392 2.232-3 2.952-4.824.72-1.824 1.08-3.792 1.08-5.904 0-2.064-.36-4.008-1.08-5.832-.72-1.872-1.704-3.48-2.952-4.824a13.23 13.23 0 0 0-4.392-3.24 11.591 11.591 0 0 0-5.256-1.224c-1.872 0-3.624.408-5.256 1.224a13.458 13.458 0 0 0-4.32 3.24c-1.248 1.392-2.232 3.024-2.952 4.896-.72 1.824-1.08 3.792-1.08 5.904zm56.428 19.296c-2.736 0-5.231-.504-7.487-1.512a19.322 19.322 0 0 1-5.904-4.248c-1.633-1.776-2.905-3.84-3.817-6.192a20.333 20.333 0 0 1-1.367-7.416c0-2.64.456-5.136 1.368-7.488.96-2.352 2.255-4.416 3.887-6.192a19.322 19.322 0 0 1 5.904-4.248c2.257-1.056 4.728-1.584 7.416-1.584 2.689 0 5.16.528 7.416 1.584 2.305 1.056 4.273 2.472 5.904 4.248 1.68 1.776 2.977 3.84 3.889 6.192.96 2.352 1.44 4.848 1.44 7.488 0 2.592-.456 5.064-1.368 7.416-.912 2.352-2.209 4.416-3.889 6.192-1.631 1.776-3.6 3.192-5.903 4.248-2.257 1.008-4.752 1.512-7.489 1.512zm-13.608-19.296c0 2.112.36 4.08 1.08 5.904.72 1.776 1.68 3.36 2.88 4.752a13.962 13.962 0 0 0 4.32 3.168 12.667 12.667 0 0 0 5.329 1.152c1.871 0 3.623-.384 5.255-1.152a14.7 14.7 0 0 0 4.392-3.24c1.249-1.392 2.233-3 2.953-4.824.72-1.824 1.08-3.792 1.08-5.904 0-2.064-.36-4.008-1.08-5.832-.72-1.872-1.704-3.48-2.953-4.824a13.23 13.23 0 0 0-4.391-3.24 11.591 11.591 0 0 0-5.257-1.224c-1.871 0-3.623.408-5.255 1.224a13.458 13.458 0 0 0-4.32 3.24c-1.248 1.392-2.233 3.024-2.953 4.896-.72 1.824-1.08 3.792-1.08 5.904zm57.953 16.776c-.288.144-.72.336-1.296.576-.528.24-1.152.48-1.872.72-.72.24-1.536.456-2.448.648-.912.192-1.872.288-2.88.288-1.056 0-2.064-.144-3.024-.432-.96-.288-1.8-.72-2.52-1.296a6.931 6.931 0 0 1-1.728-2.304c-.432-.912-.648-1.968-.648-3.168v-26.856h-5.184v-3.888H112V97.816h4.896v12.672h8.64v3.888h-8.64v25.488c.096 1.392.576 2.424 1.44 3.096.912.624 1.944.936 3.096.936 1.392 0 2.616-.216 3.672-.648 1.056-.48 1.728-.816 2.016-1.008l1.296 3.96zm24.477 2.52c-2.976 0-5.712-.744-8.208-2.232-2.448-1.488-4.368-3.408-5.76-5.76V148h-4.392V95.44h4.896v22.896c1.68-2.544 3.696-4.584 6.048-6.12 2.352-1.584 5.088-2.376 8.208-2.376 2.64 0 4.992.552 7.056 1.656a15.976 15.976 0 0 1 5.328 4.464c1.488 1.824 2.616 3.912 3.384 6.264a21.198 21.198 0 0 1 1.224 7.128c0 2.64-.456 5.136-1.368 7.488-.912 2.352-2.16 4.416-3.744 6.192-1.584 1.728-3.48 3.12-5.688 4.176-2.16 1.008-4.488 1.512-6.984 1.512zm-1.152-4.32c2.064 0 3.936-.408 5.616-1.224 1.728-.864 3.192-1.992 4.392-3.384a15.904 15.904 0 0 0 2.88-4.824 15.17 15.17 0 0 0 1.08-5.616c0-1.968-.336-3.864-1.008-5.688-.624-1.824-1.536-3.432-2.736-4.824a12.187 12.187 0 0 0-4.248-3.384c-1.632-.864-3.432-1.296-5.4-1.296-1.488 0-2.88.264-4.176.792a13.313 13.313 0 0 0-3.6 2.016 16.032 16.032 0 0 0-2.952 3.024 17.84 17.84 0 0 0-2.16 3.528v11.664c.192 1.296.696 2.52 1.512 3.672a14.353 14.353 0 0 0 3.024 2.88 16.83 16.83 0 0 0 3.816 1.944c1.392.48 2.712.72 3.96.72zm36.661 4.32c-1.776 0-3.432-.288-4.968-.864a13.58 13.58 0 0 1-3.96-2.52 11.603 11.603 0 0 1-2.592-3.672 11.464 11.464 0 0 1-.936-4.608c0-1.632.384-3.144 1.152-4.536.768-1.392 1.848-2.592 3.24-3.6 1.392-1.008 3.048-1.776 4.968-2.304 1.92-.576 4.032-.864 6.336-.864 1.92 0 3.864.168 5.832.504 1.968.336 3.72.816 5.256 1.44v-3.384c0-3.312-.936-5.928-2.808-7.848-1.872-1.968-4.464-2.952-7.776-2.952-1.92 0-3.888.384-5.904 1.152-2.016.768-4.056 1.872-6.12 3.312l-1.728-3.24c4.848-3.264 9.552-4.896 14.112-4.896 4.704 0 8.4 1.32 11.088 3.96 2.688 2.64 4.032 6.288 4.032 10.944v16.92c0 1.344.6 2.016 1.8 2.016V148c-.816.144-1.44.216-1.872.216-1.248 0-2.232-.312-2.952-.936-.672-.624-1.032-1.488-1.08-2.592l-.144-2.952c-1.728 2.256-3.912 3.984-6.552 5.184-2.592 1.2-5.4 1.8-8.424 1.8zm1.152-3.744c2.544 0 4.872-.48 6.984-1.44 2.16-.96 3.792-2.232 4.896-3.816.432-.432.744-.888.936-1.368.24-.528.36-1.008.36-1.44v-6.12a29.786 29.786 0 0 0-5.112-1.44 27.852 27.852 0 0 0-5.328-.504c-3.456 0-6.264.72-8.424 2.16-2.16 1.44-3.24 3.336-3.24 5.688 0 1.152.216 2.232.648 3.24a9.528 9.528 0 0 0 1.872 2.664c.816.72 1.776 1.296 2.88 1.728a9.595 9.595 0 0 0 3.528.648zm28.867-49.536h4.896v44.064c0 1.392.384 2.496 1.152 3.312.768.768 1.848 1.152 3.24 1.152.528 0 1.152-.072 1.872-.216.72-.144 1.392-.336 2.016-.576l.864 3.96c-.912.384-2.04.696-3.384.936-1.296.24-2.424.36-3.384.36-2.256 0-4.032-.624-5.328-1.872-1.296-1.296-1.944-3.096-1.944-5.4V95.44zm19.617 0h4.896v44.064c0 1.392.384 2.496 1.152 3.312.768.768 1.848 1.152 3.24 1.152.528 0 1.152-.072 1.872-.216.72-.144 1.392-.336 2.016-.576l.864 3.96c-.912.384-2.04.696-3.384.936-1.296.24-2.424.36-3.384.36-2.256 0-4.032-.624-5.328-1.872-1.296-1.296-1.944-3.096-1.944-5.4V95.44zm44.935 53.28c-1.776 0-3.432-.288-4.968-.864a13.58 13.58 0 0 1-3.96-2.52 11.603 11.603 0 0 1-2.592-3.672 11.464 11.464 0 0 1-.936-4.608c0-1.632.384-3.144 1.152-4.536.768-1.392 1.848-2.592 3.24-3.6 1.392-1.008 3.048-1.776 4.968-2.304 1.92-.576 4.032-.864 6.336-.864 1.92 0 3.864.168 5.832.504 1.968.336 3.72.816 5.256 1.44v-3.384c0-3.312-.936-5.928-2.808-7.848-1.872-1.968-4.464-2.952-7.776-2.952-1.92 0-3.888.384-5.904 1.152-2.016.768-4.056 1.872-6.12 3.312l-1.728-3.24c4.848-3.264 9.552-4.896 14.112-4.896 4.704 0 8.4 1.32 11.088 3.96 2.688 2.64 4.032 6.288 4.032 10.944v16.92c0 1.344.6 2.016 1.8 2.016V148c-.816.144-1.44.216-1.872.216-1.248 0-2.232-.312-2.952-.936-.672-.624-1.032-1.488-1.08-2.592l-.144-2.952c-1.728 2.256-3.912 3.984-6.552 5.184-2.592 1.2-5.4 1.8-8.424 1.8zm1.152-3.744c2.544 0 4.872-.48 6.984-1.44 2.16-.96 3.792-2.232 4.896-3.816.432-.432.744-.888.936-1.368.24-.528.36-1.008.36-1.44v-6.12a29.786 29.786 0 0 0-5.112-1.44 27.852 27.852 0 0 0-5.328-.504c-3.456 0-6.264.72-8.424 2.16-2.16 1.44-3.24 3.336-3.24 5.688 0 1.152.216 2.232.648 3.24a9.528 9.528 0 0 0 1.872 2.664c.816.72 1.776 1.296 2.88 1.728a9.595 9.595 0 0 0 3.528.648zm43.698 3.528c-2.592 0-4.968-.528-7.128-1.584a19.428 19.428 0 0 1-5.544-4.32c-1.536-1.776-2.736-3.816-3.6-6.12a20.14 20.14 0 0 1-1.296-7.128c0-2.592.408-5.064 1.224-7.416.864-2.4 2.064-4.488 3.6-6.264a17.523 17.523 0 0 1 5.472-4.248c2.16-1.056 4.536-1.584 7.128-1.584 3.216 0 6 .816 8.352 2.448 2.352 1.584 4.368 3.6 6.048 6.048v-7.848h4.392v37.656c0 2.592-.504 4.872-1.512 6.84-.96 2.016-2.28 3.696-3.96 5.04-1.632 1.344-3.576 2.352-5.832 3.024-2.208.672-4.56 1.008-7.056 1.008-4.32 0-7.8-.768-10.44-2.304a18.404 18.404 0 0 1-6.408-6.192l3.024-2.376c1.488 2.4 3.456 4.152 5.904 5.256 2.448 1.152 5.088 1.728 7.92 1.728 1.824 0 3.552-.264 5.184-.792 1.632-.48 3.048-1.224 4.248-2.232 1.248-.96 2.232-2.208 2.952-3.744.72-1.488 1.08-3.24 1.08-5.256v-7.416c-1.44 2.4-3.408 4.296-5.904 5.688-2.496 1.392-5.112 2.088-7.848 2.088zm1.368-4.104c1.44 0 2.856-.264 4.248-.792a14.202 14.202 0 0 0 3.744-2.088c1.152-.912 2.112-1.92 2.88-3.024.768-1.104 1.272-2.232 1.512-3.384V123.52a14.612 14.612 0 0 0-2.16-3.744 14.997 14.997 0 0 0-3.096-2.952 15.414 15.414 0 0 0-3.744-1.944 11.32 11.32 0 0 0-3.96-.72c-2.112 0-4.008.456-5.688 1.368a13.203 13.203 0 0 0-4.176 3.456 16.117 16.117 0 0 0-2.664 4.896 18.31 18.31 0 0 0-.864 5.544c0 2.016.36 3.936 1.08 5.76.72 1.824 1.704 3.432 2.952 4.824a15.656 15.656 0 0 0 4.464 3.24c1.68.768 3.504 1.152 5.472 1.152zm44.292 4.32c-2.736 0-5.256-.504-7.56-1.512a19.322 19.322 0 0 1-5.904-4.248c-1.68-1.824-3-3.912-3.96-6.264-.912-2.352-1.368-4.872-1.368-7.56 0-2.64.456-5.112 1.368-7.416.96-2.352 2.256-4.392 3.888-6.12 1.68-1.776 3.672-3.168 5.976-4.176 2.304-1.056 4.8-1.584 7.488-1.584 2.736 0 5.232.528 7.488 1.584 2.304 1.008 4.272 2.4 5.904 4.176a19.64 19.64 0 0 1 3.816 6.12c.912 2.304 1.368 4.752 1.368 7.344v1.152c0 .384-.024.648-.072.792h-32.112c.144 2.016.6 3.888 1.368 5.616.816 1.68 1.848 3.144 3.096 4.392a14.381 14.381 0 0 0 4.248 2.952 13.481 13.481 0 0 0 5.184 1.008c1.2 0 2.4-.168 3.6-.504 1.2-.336 2.304-.792 3.312-1.368a12.908 12.908 0 0 0 2.736-2.088c.816-.864 1.44-1.8 1.872-2.808l4.248 1.152a12.939 12.939 0 0 1-2.448 3.816 18.68 18.68 0 0 1-3.672 2.952c-1.392.816-2.928 1.44-4.608 1.872-1.68.48-3.432.72-5.256.72zm13.824-21.456c-.144-2.016-.624-3.84-1.44-5.472-.768-1.68-1.776-3.12-3.024-4.32a12.862 12.862 0 0 0-4.248-2.808c-1.584-.672-3.288-1.008-5.112-1.008-1.824 0-3.552.336-5.184 1.008a13.695 13.695 0 0 0-4.32 2.808c-1.2 1.2-2.184 2.64-2.952 4.32-.72 1.68-1.152 3.504-1.296 5.472h27.576zM431.077 148h-4.896v-20.952c0-4.464-.672-7.704-2.016-9.72-1.296-2.016-3.312-3.024-6.048-3.024-1.44 0-2.88.264-4.32.792a15.12 15.12 0 0 0-4.032 2.232c-1.2.96-2.28 2.112-3.24 3.456a12.991 12.991 0 0 0-2.088 4.248V148h-4.896v-37.512h4.464v8.496c1.536-2.736 3.72-4.944 6.552-6.624 2.88-1.68 6-2.52 9.36-2.52 2.064 0 3.816.384 5.256 1.152a8.968 8.968 0 0 1 3.456 3.24c.864 1.392 1.488 3.096 1.872 5.112.384 2.016.576 4.248.576 6.696V148zm7.848-18.864c0-2.64.456-5.136 1.368-7.488.912-2.352 2.184-4.392 3.816-6.12 1.68-1.776 3.672-3.168 5.976-4.176s4.848-1.512 7.632-1.512c3.552 0 6.648.816 9.288 2.448 2.64 1.584 4.632 3.744 5.976 6.48l-4.752 1.512a11.102 11.102 0 0 0-4.464-4.464c-1.872-1.104-3.96-1.656-6.264-1.656-1.92 0-3.72.384-5.4 1.152a13.962 13.962 0 0 0-4.32 3.168c-1.2 1.296-2.16 2.856-2.88 4.68-.672 1.824-1.008 3.816-1.008 5.976 0 2.112.36 4.104 1.08 5.976.72 1.872 1.704 3.504 2.952 4.896a15.012 15.012 0 0 0 4.32 3.24 12.667 12.667 0 0 0 5.328 1.152c1.2 0 2.376-.168 3.528-.504 1.2-.336 2.304-.792 3.312-1.368 1.008-.624 1.872-1.32 2.592-2.088s1.224-1.584 1.512-2.448l4.824 1.44a12.738 12.738 0 0 1-2.304 3.744c-1.008 1.104-2.208 2.088-3.6 2.952-1.344.816-2.856 1.44-4.536 1.872-1.632.48-3.336.72-5.112.72-2.736 0-5.256-.504-7.56-1.512-2.304-1.056-4.296-2.472-5.976-4.248-1.68-1.824-3-3.912-3.96-6.264-.912-2.352-1.368-4.872-1.368-7.56zm43.776 30.384c.384.048.744.072 1.08.072.384.048.744.072 1.08.072.864 0 1.536-.12 2.016-.36.528-.24 1.032-.768 1.512-1.584.48-.816 1.008-1.992 1.584-3.528.624-1.536 1.488-3.6 2.592-6.192l-16.344-37.512h5.04l13.896 32.976 12.888-32.976h4.68l-19.44 48.384c-.528 1.392-1.416 2.592-2.664 3.6-1.2 1.056-2.856 1.584-4.968 1.584a12.4 12.4 0 0 1-1.368-.072 10.7 10.7 0 0 1-1.584-.144v-4.32z" fill="#fff"/></svg>