<svg width="224" height="21" viewBox="0 0 224 21" fill="none" xmlns="http://www.w3.org/2000/svg">
<path d="M0.84 15.544L0.936 15.112L8.712 0.423999H12.192L19.896 14.872C19.96 14.984 20 15.072 20.016 15.136C20.032 15.2 20.04 15.272 20.04 15.352V15.688C20.04 15.768 20.024 15.84 19.992 15.904C19.976 15.968 19.92 16 19.824 16H16.008L10.536 5.176L10.416 5.152L6.744 12.136V12.424C6.744 12.552 6.792 12.616 6.888 12.616H12.912L13.152 12.928V15.76L12.912 16H1.056C0.992 16 0.936 15.944 0.888 15.832C0.856 15.72 0.84 15.624 0.84 15.544ZM36.0274 0.759999V3.808L35.6914 4.048L27.5074 12.28L27.7234 12.616H35.7874L36.0274 12.952V15.664L35.8114 16H22.3714L22.0594 15.64V12.616L22.3714 12.4L30.6274 4.144L30.4114 3.784H22.2754L22.0594 3.448V0.735999L22.2514 0.423999H35.6914L36.0274 0.759999ZM38.3953 0.639999L38.7073 0.423999H53.3713L53.5873 0.735999V3.448L53.3473 3.784H42.4753L42.2593 4.144V12.28L42.4753 12.616H53.3473L53.5873 12.952V15.664L53.3713 16H38.7073L38.3953 15.64V0.639999ZM52.0993 6.784V9.64L51.8593 9.904H43.4833L43.2433 9.64V6.784L43.4833 6.52H51.8593L52.0993 6.784ZM55.9969 7.672V2.656C55.9969 2.448 56.0449 2.216 56.1409 1.96C56.2529 1.688 56.3889 1.44 56.5489 1.216C56.7089 0.991999 56.8929 0.807999 57.1009 0.663999C57.3089 0.503999 57.5249 0.423999 57.7489 0.423999H71.0209L71.2369 0.735999V3.448L70.9969 3.784H59.8609V6.52H69.4849C69.6929 6.52 69.9009 6.6 70.1089 6.76C70.3169 6.904 70.5009 7.088 70.6609 7.312C70.8369 7.536 70.9729 7.784 71.0689 8.056C71.1809 8.312 71.2369 8.544 71.2369 8.752V13.768C71.2369 13.992 71.1809 14.232 71.0689 14.488C70.9729 14.744 70.8369 14.984 70.6609 15.208C70.5009 15.432 70.3169 15.624 70.1089 15.784C69.9009 15.928 69.6929 16 69.4849 16H56.1889L55.9969 15.664V12.952L56.2129 12.616H67.3729V9.904H57.7489C57.5249 9.904 57.3089 9.832 57.1009 9.688C56.8929 9.528 56.7089 9.336 56.5489 9.112C56.3889 8.872 56.2529 8.624 56.1409 8.368C56.0449 8.112 55.9969 7.88 55.9969 7.672ZM73.6453 7.672V2.656C73.6453 2.448 73.6933 2.216 73.7893 1.96C73.9013 1.688 74.0373 1.44 74.1973 1.216C74.3573 0.991999 74.5413 0.807999 74.7493 0.663999C74.9573 0.503999 75.1733 0.423999 75.3973 0.423999H88.6693L88.8853 0.735999V3.448L88.6453 3.784H77.5093V6.52H87.1333C87.3413 6.52 87.5493 6.6 87.7573 6.76C87.9653 6.904 88.1493 7.088 88.3093 7.312C88.4853 7.536 88.6213 7.784 88.7173 8.056C88.8293 8.312 88.8853 8.544 88.8853 8.752V13.768C88.8853 13.992 88.8293 14.232 88.7173 14.488C88.6213 14.744 88.4853 14.984 88.3093 15.208C88.1493 15.432 87.9653 15.624 87.7573 15.784C87.5493 15.928 87.3413 16 87.1333 16H73.8373L73.6453 15.664V12.952L73.8613 12.616H85.0213V9.904H75.3973C75.1733 9.904 74.9573 9.832 74.7493 9.688C74.5413 9.528 74.3573 9.336 74.1973 9.112C74.0373 8.872 73.9013 8.624 73.7893 8.368C73.6933 8.112 73.6453 7.88 73.6453 7.672ZM96.3586 16V7.594H95.0626V6.622H96.3586V6.37C96.3586 5.218 96.6046 4.318 97.0966 3.67C97.5886 3.01 98.2606 2.68 99.1126 2.68C99.4846 2.68 99.8446 2.734 100.193 2.842C100.541 2.95 100.841 3.094 101.093 3.274L100.715 4.156C100.547 4.024 100.337 3.922 100.085 3.85C99.8446 3.778 99.5986 3.742 99.3466 3.742C98.7706 3.742 98.3326 3.964 98.0326 4.408C97.7326 4.852 97.5826 5.494 97.5826 6.334V6.622H100.175V7.594H97.5826V16H96.3586ZM105.371 16.18C104.687 16.18 104.063 16.054 103.499 15.802C102.935 15.538 102.443 15.184 102.023 14.74C101.615 14.296 101.297 13.78 101.069 13.192C100.841 12.604 100.727 11.986 100.727 11.338C100.727 10.678 100.841 10.054 101.069 9.466C101.309 8.878 101.633 8.362 102.041 7.918C102.461 7.474 102.953 7.12 103.517 6.856C104.081 6.592 104.699 6.46 105.371 6.46C106.043 6.46 106.661 6.592 107.225 6.856C107.801 7.12 108.293 7.474 108.701 7.918C109.121 8.362 109.445 8.878 109.673 9.466C109.913 10.054 110.033 10.678 110.033 11.338C110.033 11.986 109.919 12.604 109.691 13.192C109.463 13.78 109.139 14.296 108.719 14.74C108.311 15.184 107.819 15.538 107.243 15.802C106.679 16.054 106.055 16.18 105.371 16.18ZM101.969 11.356C101.969 11.884 102.059 12.376 102.239 12.832C102.419 13.276 102.659 13.672 102.959 14.02C103.271 14.356 103.631 14.62 104.039 14.812C104.459 15.004 104.903 15.1 105.371 15.1C105.839 15.1 106.277 15.004 106.685 14.812C107.105 14.608 107.471 14.338 107.783 14.002C108.095 13.654 108.341 13.252 108.521 12.796C108.701 12.34 108.791 11.848 108.791 11.32C108.791 10.804 108.701 10.318 108.521 9.862C108.341 9.394 108.095 8.992 107.783 8.656C107.471 8.308 107.105 8.038 106.685 7.846C106.277 7.642 105.839 7.54 105.371 7.54C104.903 7.54 104.465 7.642 104.057 7.846C103.649 8.038 103.289 8.308 102.977 8.656C102.665 9.004 102.419 9.412 102.239 9.88C102.059 10.336 101.969 10.828 101.969 11.356ZM116.076 16.18C115.392 16.18 114.768 16.054 114.204 15.802C113.64 15.538 113.148 15.184 112.728 14.74C112.32 14.296 112.002 13.78 111.774 13.192C111.546 12.604 111.432 11.986 111.432 11.338C111.432 10.678 111.546 10.054 111.774 9.466C112.014 8.878 112.338 8.362 112.746 7.918C113.166 7.474 113.658 7.12 114.222 6.856C114.786 6.592 115.404 6.46 116.076 6.46C116.748 6.46 117.366 6.592 117.93 6.856C118.506 7.12 118.998 7.474 119.406 7.918C119.826 8.362 120.15 8.878 120.378 9.466C120.618 10.054 120.738 10.678 120.738 11.338C120.738 11.986 120.624 12.604 120.396 13.192C120.168 13.78 119.844 14.296 119.424 14.74C119.016 15.184 118.524 15.538 117.948 15.802C117.384 16.054 116.76 16.18 116.076 16.18ZM112.674 11.356C112.674 11.884 112.764 12.376 112.944 12.832C113.124 13.276 113.364 13.672 113.664 14.02C113.976 14.356 114.336 14.62 114.744 14.812C115.164 15.004 115.608 15.1 116.076 15.1C116.544 15.1 116.982 15.004 117.39 14.812C117.81 14.608 118.176 14.338 118.488 14.002C118.8 13.654 119.046 13.252 119.226 12.796C119.406 12.34 119.496 11.848 119.496 11.32C119.496 10.804 119.406 10.318 119.226 9.862C119.046 9.394 118.8 8.992 118.488 8.656C118.176 8.308 117.81 8.038 117.39 7.846C116.982 7.642 116.544 7.54 116.076 7.54C115.608 7.54 115.17 7.642 114.762 7.846C114.354 8.038 113.994 8.308 113.682 8.656C113.37 9.004 113.124 9.412 112.944 9.88C112.764 10.336 112.674 10.828 112.674 11.356ZM127.163 15.55C127.091 15.586 126.983 15.634 126.839 15.694C126.707 15.754 126.551 15.814 126.371 15.874C126.191 15.934 125.987 15.988 125.759 16.036C125.531 16.084 125.291 16.108 125.039 16.108C124.775 16.108 124.523 16.072 124.283 16C124.043 15.928 123.833 15.82 123.653 15.676C123.473 15.52 123.329 15.328 123.221 15.1C123.113 14.872 123.059 14.608 123.059 14.308V7.594H121.763V6.622H123.059V3.454H124.283V6.622H126.443V7.594H124.283V13.966C124.307 14.314 124.427 14.572 124.643 14.74C124.871 14.896 125.129 14.974 125.417 14.974C125.765 14.974 126.071 14.92 126.335 14.812C126.599 14.692 126.767 14.608 126.839 14.56L127.163 15.55ZM133.282 16.18C132.538 16.18 131.854 15.994 131.23 15.622C130.618 15.25 130.138 14.77 129.79 14.182V16H128.692V2.86H129.916V8.584C130.336 7.948 130.84 7.438 131.428 7.054C132.016 6.658 132.7 6.46 133.48 6.46C134.14 6.46 134.728 6.598 135.244 6.874C135.772 7.15 136.216 7.522 136.576 7.99C136.948 8.446 137.23 8.968 137.422 9.556C137.626 10.132 137.728 10.726 137.728 11.338C137.728 11.998 137.614 12.622 137.386 13.21C137.158 13.798 136.846 14.314 136.45 14.758C136.054 15.19 135.58 15.538 135.028 15.802C134.488 16.054 133.906 16.18 133.282 16.18ZM132.994 15.1C133.51 15.1 133.978 14.998 134.398 14.794C134.83 14.578 135.196 14.296 135.496 13.948C135.808 13.588 136.048 13.186 136.216 12.742C136.396 12.286 136.486 11.818 136.486 11.338C136.486 10.846 136.402 10.372 136.234 9.916C136.078 9.46 135.85 9.058 135.55 8.71C135.262 8.35 134.908 8.068 134.488 7.864C134.08 7.648 133.63 7.54 133.138 7.54C132.766 7.54 132.418 7.606 132.094 7.738C131.77 7.858 131.47 8.026 131.194 8.242C130.918 8.458 130.672 8.71 130.456 8.998C130.24 9.274 130.06 9.568 129.916 9.88V12.796C129.964 13.12 130.09 13.426 130.294 13.714C130.51 13.99 130.762 14.23 131.05 14.434C131.35 14.638 131.668 14.8 132.004 14.92C132.352 15.04 132.682 15.1 132.994 15.1ZM142.159 16.18C141.715 16.18 141.301 16.108 140.917 15.964C140.545 15.808 140.215 15.598 139.927 15.334C139.651 15.07 139.435 14.764 139.279 14.416C139.123 14.056 139.045 13.672 139.045 13.264C139.045 12.856 139.141 12.478 139.333 12.13C139.525 11.782 139.795 11.482 140.143 11.23C140.491 10.978 140.905 10.786 141.385 10.654C141.865 10.51 142.393 10.438 142.969 10.438C143.449 10.438 143.935 10.48 144.427 10.564C144.919 10.648 145.357 10.768 145.741 10.924V10.078C145.741 9.25 145.507 8.596 145.039 8.116C144.571 7.624 143.923 7.378 143.095 7.378C142.615 7.378 142.123 7.474 141.619 7.666C141.115 7.858 140.605 8.134 140.089 8.494L139.657 7.684C140.869 6.868 142.045 6.46 143.185 6.46C144.361 6.46 145.285 6.79 145.957 7.45C146.629 8.11 146.965 9.022 146.965 10.186V14.416C146.965 14.752 147.115 14.92 147.415 14.92V16C147.211 16.036 147.055 16.054 146.947 16.054C146.635 16.054 146.389 15.976 146.209 15.82C146.041 15.664 145.951 15.448 145.939 15.172L145.903 14.434C145.471 14.998 144.925 15.43 144.265 15.73C143.617 16.03 142.915 16.18 142.159 16.18ZM142.447 15.244C143.083 15.244 143.665 15.124 144.193 14.884C144.733 14.644 145.141 14.326 145.417 13.93C145.525 13.822 145.603 13.708 145.651 13.588C145.711 13.456 145.741 13.336 145.741 13.228V11.698C145.333 11.542 144.907 11.422 144.463 11.338C144.031 11.254 143.587 11.212 143.131 11.212C142.267 11.212 141.565 11.392 141.025 11.752C140.485 12.112 140.215 12.586 140.215 13.174C140.215 13.462 140.269 13.732 140.377 13.984C140.497 14.236 140.653 14.458 140.845 14.65C141.049 14.83 141.289 14.974 141.565 15.082C141.841 15.19 142.135 15.244 142.447 15.244ZM149.664 2.86H150.888V13.876C150.888 14.224 150.984 14.5 151.176 14.704C151.368 14.896 151.638 14.992 151.986 14.992C152.118 14.992 152.274 14.974 152.454 14.938C152.634 14.902 152.802 14.854 152.958 14.794L153.174 15.784C152.946 15.88 152.664 15.958 152.328 16.018C152.004 16.078 151.722 16.108 151.482 16.108C150.918 16.108 150.474 15.952 150.15 15.64C149.826 15.316 149.664 14.866 149.664 14.29V2.86ZM154.568 2.86H155.792V13.876C155.792 14.224 155.888 14.5 156.08 14.704C156.272 14.896 156.542 14.992 156.89 14.992C157.022 14.992 157.178 14.974 157.358 14.938C157.538 14.902 157.706 14.854 157.862 14.794L158.078 15.784C157.85 15.88 157.568 15.958 157.232 16.018C156.908 16.078 156.626 16.108 156.386 16.108C155.822 16.108 155.378 15.952 155.054 15.64C154.73 15.316 154.568 14.866 154.568 14.29V2.86ZM165.802 16.18C165.358 16.18 164.944 16.108 164.56 15.964C164.188 15.808 163.858 15.598 163.57 15.334C163.294 15.07 163.078 14.764 162.922 14.416C162.766 14.056 162.688 13.672 162.688 13.264C162.688 12.856 162.784 12.478 162.976 12.13C163.168 11.782 163.438 11.482 163.786 11.23C164.134 10.978 164.548 10.786 165.028 10.654C165.508 10.51 166.036 10.438 166.612 10.438C167.092 10.438 167.578 10.48 168.07 10.564C168.562 10.648 169 10.768 169.384 10.924V10.078C169.384 9.25 169.15 8.596 168.682 8.116C168.214 7.624 167.566 7.378 166.738 7.378C166.258 7.378 165.766 7.474 165.262 7.666C164.758 7.858 164.248 8.134 163.732 8.494L163.3 7.684C164.512 6.868 165.688 6.46 166.828 6.46C168.004 6.46 168.928 6.79 169.6 7.45C170.272 8.11 170.608 9.022 170.608 10.186V14.416C170.608 14.752 170.758 14.92 171.058 14.92V16C170.854 16.036 170.698 16.054 170.59 16.054C170.278 16.054 170.032 15.976 169.852 15.82C169.684 15.664 169.594 15.448 169.582 15.172L169.546 14.434C169.114 14.998 168.568 15.43 167.908 15.73C167.26 16.03 166.558 16.18 165.802 16.18ZM166.09 15.244C166.726 15.244 167.308 15.124 167.836 14.884C168.376 14.644 168.784 14.326 169.06 13.93C169.168 13.822 169.246 13.708 169.294 13.588C169.354 13.456 169.384 13.336 169.384 13.228V11.698C168.976 11.542 168.55 11.422 168.106 11.338C167.674 11.254 167.23 11.212 166.774 11.212C165.91 11.212 165.208 11.392 164.668 11.752C164.128 12.112 163.858 12.586 163.858 13.174C163.858 13.462 163.912 13.732 164.02 13.984C164.14 14.236 164.296 14.458 164.488 14.65C164.692 14.83 164.932 14.974 165.208 15.082C165.484 15.19 165.778 15.244 166.09 15.244ZM177.014 16.126C176.366 16.126 175.772 15.994 175.232 15.73C174.704 15.454 174.242 15.094 173.846 14.65C173.462 14.206 173.162 13.696 172.946 13.12C172.73 12.544 172.622 11.95 172.622 11.338C172.622 10.69 172.724 10.072 172.928 9.484C173.144 8.884 173.444 8.362 173.828 7.918C174.212 7.474 174.668 7.12 175.196 6.856C175.736 6.592 176.33 6.46 176.978 6.46C177.782 6.46 178.478 6.664 179.066 7.072C179.654 7.468 180.158 7.972 180.578 8.584V6.622H181.676V16.036C181.676 16.684 181.55 17.254 181.298 17.746C181.058 18.25 180.728 18.67 180.308 19.006C179.9 19.342 179.414 19.594 178.85 19.762C178.298 19.93 177.71 20.014 177.086 20.014C176.006 20.014 175.136 19.822 174.476 19.438C173.816 19.054 173.282 18.538 172.874 17.89L173.63 17.296C174.002 17.896 174.494 18.334 175.106 18.61C175.718 18.898 176.378 19.042 177.086 19.042C177.542 19.042 177.974 18.976 178.382 18.844C178.79 18.724 179.144 18.538 179.444 18.286C179.756 18.046 180.002 17.734 180.182 17.35C180.362 16.978 180.452 16.54 180.452 16.036V14.182C180.092 14.782 179.6 15.256 178.976 15.604C178.352 15.952 177.698 16.126 177.014 16.126ZM177.356 15.1C177.716 15.1 178.07 15.034 178.418 14.902C178.766 14.77 179.078 14.596 179.354 14.38C179.642 14.152 179.882 13.9 180.074 13.624C180.266 13.348 180.392 13.066 180.452 12.778V9.88C180.32 9.544 180.14 9.232 179.912 8.944C179.684 8.656 179.426 8.41 179.138 8.206C178.85 8.002 178.538 7.84 178.202 7.72C177.878 7.6 177.548 7.54 177.212 7.54C176.684 7.54 176.21 7.654 175.79 7.882C175.382 8.098 175.034 8.386 174.746 8.746C174.458 9.106 174.236 9.514 174.08 9.97C173.936 10.426 173.864 10.888 173.864 11.356C173.864 11.86 173.954 12.34 174.134 12.796C174.314 13.252 174.56 13.654 174.872 14.002C175.196 14.338 175.568 14.608 175.988 14.812C176.408 15.004 176.864 15.1 177.356 15.1ZM188.429 16.18C187.745 16.18 187.115 16.054 186.539 15.802C185.975 15.538 185.483 15.184 185.063 14.74C184.643 14.284 184.313 13.762 184.073 13.174C183.845 12.586 183.731 11.956 183.731 11.284C183.731 10.624 183.845 10.006 184.073 9.43C184.313 8.842 184.637 8.332 185.045 7.9C185.465 7.456 185.963 7.108 186.539 6.856C187.115 6.592 187.739 6.46 188.411 6.46C189.095 6.46 189.719 6.592 190.283 6.856C190.859 7.108 191.351 7.456 191.759 7.9C192.167 8.344 192.485 8.854 192.713 9.43C192.941 10.006 193.055 10.618 193.055 11.266C193.055 11.362 193.055 11.458 193.055 11.554C193.055 11.65 193.049 11.716 193.037 11.752H185.009C185.045 12.256 185.159 12.724 185.351 13.156C185.555 13.576 185.813 13.942 186.125 14.254C186.437 14.566 186.791 14.812 187.187 14.992C187.595 15.16 188.027 15.244 188.483 15.244C188.783 15.244 189.083 15.202 189.383 15.118C189.683 15.034 189.959 14.92 190.211 14.776C190.463 14.632 190.691 14.458 190.895 14.254C191.099 14.038 191.255 13.804 191.363 13.552L192.425 13.84C192.281 14.188 192.077 14.506 191.813 14.794C191.549 15.07 191.243 15.316 190.895 15.532C190.547 15.736 190.163 15.892 189.743 16C189.323 16.12 188.885 16.18 188.429 16.18ZM191.885 10.816C191.849 10.312 191.729 9.856 191.525 9.448C191.333 9.028 191.081 8.668 190.769 8.368C190.469 8.068 190.115 7.834 189.707 7.666C189.311 7.498 188.885 7.414 188.429 7.414C187.973 7.414 187.541 7.498 187.133 7.666C186.725 7.834 186.365 8.068 186.053 8.368C185.753 8.668 185.507 9.028 185.315 9.448C185.135 9.868 185.027 10.324 184.991 10.816H191.885ZM202.828 16H201.604V10.762C201.604 9.646 201.436 8.836 201.1 8.332C200.776 7.828 200.272 7.576 199.588 7.576C199.228 7.576 198.868 7.642 198.508 7.774C198.148 7.906 197.812 8.092 197.5 8.332C197.2 8.572 196.93 8.86 196.69 9.196C196.45 9.52 196.276 9.874 196.168 10.258V16H194.944V6.622H196.06V8.746C196.444 8.062 196.99 7.51 197.698 7.09C198.418 6.67 199.198 6.46 200.038 6.46C200.554 6.46 200.992 6.556 201.352 6.748C201.712 6.94 202 7.21 202.216 7.558C202.432 7.906 202.588 8.332 202.684 8.836C202.78 9.34 202.828 9.898 202.828 10.51V16ZM204.79 11.284C204.79 10.624 204.904 10 205.132 9.412C205.36 8.824 205.678 8.314 206.086 7.882C206.506 7.438 207.004 7.09 207.58 6.838C208.156 6.586 208.792 6.46 209.488 6.46C210.376 6.46 211.15 6.664 211.81 7.072C212.47 7.468 212.968 8.008 213.304 8.692L212.116 9.07C211.852 8.59 211.48 8.218 211 7.954C210.532 7.678 210.01 7.54 209.434 7.54C208.954 7.54 208.504 7.636 208.084 7.828C207.676 8.02 207.316 8.284 207.004 8.62C206.704 8.944 206.464 9.334 206.284 9.79C206.116 10.246 206.032 10.744 206.032 11.284C206.032 11.812 206.122 12.31 206.302 12.778C206.482 13.246 206.728 13.654 207.04 14.002C207.352 14.338 207.712 14.608 208.12 14.812C208.54 15.004 208.984 15.1 209.452 15.1C209.752 15.1 210.046 15.058 210.334 14.974C210.634 14.89 210.91 14.776 211.162 14.632C211.414 14.476 211.63 14.302 211.81 14.11C211.99 13.918 212.116 13.714 212.188 13.498L213.394 13.858C213.262 14.194 213.07 14.506 212.818 14.794C212.566 15.07 212.266 15.316 211.918 15.532C211.582 15.736 211.204 15.892 210.784 16C210.376 16.12 209.95 16.18 209.506 16.18C208.822 16.18 208.192 16.054 207.616 15.802C207.04 15.538 206.542 15.184 206.122 14.74C205.702 14.284 205.372 13.762 205.132 13.174C204.904 12.586 204.79 11.956 204.79 11.284ZM215.734 18.88C215.83 18.892 215.92 18.898 216.004 18.898C216.1 18.91 216.19 18.916 216.274 18.916C216.49 18.916 216.658 18.886 216.778 18.826C216.91 18.766 217.036 18.634 217.156 18.43C217.276 18.226 217.408 17.932 217.552 17.548C217.708 17.164 217.924 16.648 218.2 16L214.114 6.622H215.374L218.848 14.866L222.07 6.622H223.24L218.38 18.718C218.248 19.066 218.026 19.366 217.714 19.618C217.414 19.882 217 20.014 216.472 20.014C216.352 20.014 216.238 20.008 216.13 19.996C216.022 19.996 215.89 19.984 215.734 19.96V18.88Z" fill="white"/>
</svg>
